<svg width="33" height="20" viewBox="0 0 33 20" fill="none" xmlns="http://www.w3.org/2000/svg">
<g clip-path="url(#clip0_3_1863)">
<path fill-rule="evenodd" clip-rule="evenodd" d="M17.7763 3.34972C18.3729 3.83145 18.5936 3.79714 19.7151 3.72108L30.2342 3.08872C30.4579 3.08872 30.2714 2.86649 30.1969 2.82921L28.4445 1.56597C28.2201 1.3751 27.9581 1.23357 27.6754 1.15057C27.3928 1.06758 27.0958 1.04498 26.8039 1.08424L16.6189 1.82995C16.2476 1.86575 16.1715 2.05218 16.3207 2.20132L17.7718 3.3527L17.7763 3.34972ZM18.4072 5.80162V16.8695C18.4072 17.466 18.7055 17.6868 19.3736 17.6495L30.9351 16.9813C31.6048 16.944 31.6808 16.5339 31.6808 16.0522V5.0574C31.6808 4.57567 31.4944 4.31168 31.0843 4.35195L19.0037 5.0574C18.5563 5.09468 18.4072 5.3184 18.4072 5.80311V5.80162ZM29.821 6.39819C29.8941 6.73227 29.821 7.06634 29.4855 7.10363L28.9336 7.2125V15.384C28.4504 15.6435 28.0045 15.7912 27.6331 15.7912C27.0365 15.7912 26.8874 15.6062 26.44 15.0455L22.7934 9.32884V14.8635L23.9463 15.123C23.9463 15.123 23.9463 15.7912 23.0172 15.7912L20.4519 15.9403C20.3773 15.7912 20.4519 15.4213 20.7129 15.3437L21.3811 15.1573V7.84338L20.4519 7.76881C20.4285 7.67029 20.4268 7.56785 20.4471 7.46864C20.4674 7.36942 20.5091 7.27584 20.5693 7.19444C20.6296 7.11304 20.7069 7.04578 20.7958 6.99738C20.8848 6.94897 20.9832 6.92059 21.0843 6.91422L23.8345 6.72928L27.6272 12.5279V7.39744L26.6607 7.28708C26.6436 7.19792 26.6461 7.10613 26.6679 7.01802C26.6897 6.92991 26.7304 6.84757 26.7871 6.77669C26.8438 6.70581 26.9152 6.64807 26.9964 6.60744C27.0775 6.56681 27.1666 6.54427 27.2573 6.54136L29.824 6.39222L29.821 6.39819ZM15.7673 0.823243L26.3565 0.0432277C27.6644 -0.0686291 27.9985 0.00743354 28.8158 0.596546L32.1984 2.98283C32.7562 3.39148 32.9441 3.50184 32.9441 3.94778V16.9858C32.9441 17.8016 32.6458 18.2848 31.6018 18.3594L19.2975 19.1051C18.516 19.1424 18.1447 19.0306 17.736 18.5086L15.2483 15.2722C14.8009 14.6756 14.616 14.2282 14.616 13.7121V2.12376C14.616 1.45561 14.9143 0.894831 15.7673 0.823243Z" fill="black"/>
<path d="M18.3445 5.6502C18.3445 5.33361 18.5916 5.07206 18.9077 5.05414L31.1365 4.36089C31.479 4.34148 31.7673 4.61395 31.7673 4.95695V16.3698C31.7673 16.6838 31.524 16.9442 31.2107 16.9654L18.9819 17.7945C18.6371 17.8179 18.3445 17.5445 18.3445 17.1989V5.6502Z" fill="white"/>
<path d="M20.7307 7.03833C21.9711 7.02953 23.2012 6.99588 24.4393 6.90292L24.4578 7.40943C24.0933 7.43052 24.0473 7.45766 23.9373 7.53164C23.8311 7.60547 23.7063 7.70654 23.7136 7.90449C23.7234 8.17418 23.8444 8.47682 23.9373 8.72478L25.6861 13.4275C26.2233 11.8186 27.5901 9.53122 27.5262 7.78127C27.5195 7.59885 27.4586 7.47476 27.3435 7.409C27.2284 7.34325 26.998 7.3128 26.6523 7.31765L26.6342 6.82278C27.6563 6.84928 28.6671 6.79108 29.6849 6.71139L29.7041 7.23537C29.5527 7.2409 29.4192 7.25743 29.3036 7.28497C29.1919 7.31237 29.0981 7.35077 29.0222 7.40018C28.8781 7.49872 28.6414 7.98734 28.312 8.86606C27.6829 10.5346 27.0255 12.1924 26.4134 13.8674C26.1023 14.7143 25.9482 15.1785 25.9512 15.2601L24.7577 15.3036C24.7542 15.2066 24.5063 14.5394 24.0142 13.302C23.4225 11.8022 22.8034 10.3094 22.1374 8.84083C21.7471 7.94564 21.3327 7.50605 20.8941 7.52206C20.8786 7.52263 20.8534 7.52549 20.8186 7.53065C20.7877 7.53566 20.7645 7.53845 20.749 7.53902L20.7307 7.03833Z" fill="black"/>
<path d="M17.9716 3.50489L16.4802 2.31175C16.0626 1.97767 16.3311 1.81818 16.7039 1.78975C19.6371 1.56603 25.8016 1.10363 26.6965 1.04399C27.5317 0.924672 28.0885 1.26775 28.2625 1.4169C28.7845 1.78975 29.903 2.59512 30.2013 2.83375C30.4996 3.07238 30.2759 3.13203 30.1267 3.13203C26.945 3.33089 20.3579 3.74352 19.4631 3.80317C18.5682 3.86283 18.0959 3.62918 17.9716 3.50489Z" fill="white"/>
</g>
<g clip-path="url(#clip1_3_1863)">
<path fill-rule="evenodd" clip-rule="evenodd" d="M3.16057 4.24455C3.75714 4.72628 3.97787 4.69198 5.09942 4.61592L15.6184 3.98355C15.8422 3.98355 15.6557 3.76133 15.5812 3.72404L13.8287 2.46081C13.6044 2.26993 13.3423 2.1284 13.0597 2.04541C12.7771 1.96241 12.4801 1.93981 12.1882 1.97908L2.00323 2.72479C1.63186 2.76058 1.5558 2.94701 1.70494 3.09616L3.1561 4.24753L3.16057 4.24455ZM3.79144 6.69645V17.7643C3.79144 18.3609 4.08973 18.5816 4.75789 18.5443L16.3194 17.8762C16.9891 17.8389 17.0651 17.4287 17.0651 16.947V5.95223C17.0651 5.4705 16.8787 5.20652 16.4686 5.24679L4.38801 5.95223C3.94059 5.98952 3.79144 6.21323 3.79144 6.69794V6.69645ZM15.2053 7.29302C15.2784 7.6271 15.2053 7.96118 14.8697 7.99847L14.3179 8.10734V16.2789C13.8347 16.5384 13.3888 16.686 13.0174 16.686C12.4208 16.686 12.2717 16.5011 11.8243 15.9403L8.17772 10.2237V15.7583L9.3306 16.0179C9.3306 16.0179 9.3306 16.686 8.40144 16.686L5.83619 16.8352C5.76162 16.686 5.83619 16.3161 6.09719 16.2386L6.76534 16.0522V8.73821L5.83619 8.66364C5.81274 8.56513 5.81109 8.46268 5.83138 8.36347C5.85166 8.26426 5.89338 8.17068 5.95361 8.08928C6.01385 8.00787 6.09114 7.94062 6.18009 7.89221C6.26904 7.84381 6.36749 7.81543 6.46855 7.80906L9.21874 7.62412L13.0114 13.4228V8.29228L12.045 8.18191C12.0279 8.09276 12.0304 8.00097 12.0522 7.91285C12.074 7.82474 12.1147 7.74241 12.1714 7.67153C12.2281 7.60065 12.2995 7.5429 12.3806 7.50228C12.4618 7.46165 12.5508 7.43911 12.6416 7.4362L15.2083 7.28706L15.2053 7.29302ZM1.15162 1.71808L11.7407 0.938064C13.0487 0.826207 13.3828 0.90227 14.2001 1.49138L17.5826 3.87766C18.1404 4.28631 18.3284 4.39668 18.3284 4.84261V17.8806C18.3284 18.6965 18.0301 19.1797 16.9861 19.2542L4.68182 20C3.90032 20.0372 3.52895 19.9254 3.1203 19.4034L0.632608 16.167C0.185181 15.5704 0.000244141 15.123 0.000244141 14.607V3.0186C0.000244141 2.35044 0.298529 1.78967 1.15162 1.71808Z" fill="black"/>
<path d="M3.72876 6.54498C3.72876 6.22838 3.9759 5.96684 4.29198 5.94892L16.5208 5.25567C16.8632 5.23626 17.1516 5.50872 17.1516 5.85173V17.2645C17.1516 17.5786 16.9083 17.8389 16.5949 17.8602L4.36616 18.6893C4.02133 18.7127 3.72876 18.4393 3.72876 18.0937V6.54498Z" fill="white"/>
<path d="M13.6946 7.98676C13.6956 8.02559 13.6953 8.08776 13.6937 8.17328C13.6919 8.25491 13.6916 8.31515 13.6926 8.35397C13.6995 8.6141 13.7184 8.88946 13.7494 9.18003C13.7804 9.47061 13.8257 9.78995 13.8854 10.138L13.3115 10.2523C13.2341 9.67542 12.9757 9.2335 12.5363 8.92651C12.0968 8.61564 11.5238 8.46954 10.8172 8.4882C9.91641 8.51199 9.28182 8.89431 8.79973 9.47041C8.32141 10.0425 8.17608 10.7571 8.20316 11.7821C8.23238 12.8886 8.52159 13.7507 9.09801 14.3921C9.67831 15.0334 10.3147 15.3551 11.2543 15.3303C11.8445 15.3147 12.3437 15.1675 12.7521 14.8886C13.1643 14.6096 13.4933 14.193 13.7389 13.6387L14.2578 13.8639C14.1105 14.1747 13.9826 14.4792 13.8739 14.7774C13.7651 15.0716 13.6738 15.3635 13.5998 15.653C13.1351 15.8556 12.6788 16.0114 12.231 16.1204C11.7871 16.2331 11.3575 16.295 10.9421 16.306C9.59093 16.3416 8.48549 15.9707 7.62573 15.193C6.76597 14.4153 6.31907 13.382 6.28502 12.093C6.25138 10.8195 6.66242 9.75964 7.51814 8.91336C8.37764 8.06309 9.48296 7.62011 10.8341 7.58443C11.3194 7.57161 11.796 7.59787 12.264 7.66322C12.7358 7.72846 13.2127 7.83631 13.6946 7.98676Z" fill="black"/>
<path d="M3.35591 4.39973L1.86448 3.20659C1.44689 2.87251 1.71534 2.71302 2.0882 2.68458C5.02133 2.46087 11.1859 1.99846 12.0807 1.93882C12.9159 1.81951 13.4727 2.16259 13.6467 2.31173C14.1687 2.68459 15.2873 3.48996 15.5856 3.72859C15.8839 3.96721 15.6602 4.02687 15.511 4.02687C12.3293 4.22573 5.74219 4.63835 4.84733 4.69801C3.95248 4.75767 3.48019 4.52401 3.35591 4.39973Z" fill="white"/>
</g>
<defs>
<clipPath id="clip0_3_1863">
<rect width="18.3266" height="19.1051" fill="white" transform="translate(14.6161)"/>
</clipPath>
<clipPath id="clip1_3_1863">
<rect width="18.3266" height="19.1051" fill="white" transform="translate(0.00012207 0.894836)"/>
</clipPath>
</defs>
</svg>
